<svg width="254" height="193" viewBox="0 0 254 193" fill="none" xmlns="http://www.w3.org/2000/svg">
<g filter="url(#filter0_d_5044_5973)">
<rect x="44" y="44" width="166" height="105" rx="8" fill="white" shape-rendering="crispEdges"/>
<rect x="52" y="52" width="150" height="62" fill="#D9D9D9" fill-opacity="0.39"/>
<path d="M125 70C122.429 70 119.915 70.7624 117.778 72.1909C115.64 73.6194 113.974 75.6497 112.99 78.0251C112.006 80.4006 111.748 83.0144 112.25 85.5362C112.751 88.0579 113.99 90.3743 115.808 92.1924C117.626 94.0105 119.942 95.2486 122.464 95.7502C124.986 96.2518 127.599 95.9944 129.975 95.0104C132.35 94.0265 134.381 92.3603 135.809 90.2224C137.238 88.0846 138 85.5712 138 83C137.996 79.5535 136.625 76.2494 134.188 73.8124C131.751 71.3753 128.447 70.0043 125 70ZM129.555 83.8325L123.555 87.8325C123.39 87.9416 123.197 87.9998 123 88C122.735 88 122.48 87.8946 122.293 87.7071C122.105 87.5196 122 87.2652 122 87V79C122 78.8189 122.049 78.6412 122.142 78.4858C122.235 78.3304 122.368 78.2032 122.528 78.1177C122.688 78.0323 122.868 77.9918 123.048 78.0005C123.229 78.0093 123.404 78.067 123.555 78.1675L129.555 82.1675C129.692 82.2588 129.805 82.3825 129.882 82.5278C129.96 82.673 130.001 82.8352 130.001 83C130.001 83.1648 129.96 83.327 129.882 83.4722C129.805 83.6175 129.692 83.7412 129.555 83.8325Z" fill="#D9D9D9"/>
<path d="M71.476 125.312V135H70.202V127.776L66.982 135H66.086L62.852 127.762V135H61.578V125.312H62.95L66.534 133.32L70.118 125.312H71.476ZM73.1606 131.136C73.1606 130.352 73.3193 129.666 73.6366 129.078C73.9539 128.481 74.3879 128.019 74.9386 127.692C75.4986 127.365 76.1193 127.202 76.8006 127.202C77.4726 127.202 78.0559 127.347 78.5506 127.636C79.0453 127.925 79.4139 128.289 79.6566 128.728V127.328H80.9446V135H79.6566V133.572C79.4046 134.02 79.0266 134.393 78.5226 134.692C78.0279 134.981 77.4493 135.126 76.7866 135.126C76.1053 135.126 75.4893 134.958 74.9386 134.622C74.3879 134.286 73.9539 133.815 73.6366 133.208C73.3193 132.601 73.1606 131.911 73.1606 131.136ZM79.6566 131.15C79.6566 130.571 79.5399 130.067 79.3066 129.638C79.0733 129.209 78.7559 128.882 78.3546 128.658C77.9626 128.425 77.5286 128.308 77.0526 128.308C76.5766 128.308 76.1426 128.42 75.7506 128.644C75.3586 128.868 75.0459 129.195 74.8126 129.624C74.5793 130.053 74.4626 130.557 74.4626 131.136C74.4626 131.724 74.5793 132.237 74.8126 132.676C75.0459 133.105 75.3586 133.437 75.7506 133.67C76.1426 133.894 76.5766 134.006 77.0526 134.006C77.5286 134.006 77.9626 133.894 78.3546 133.67C78.7559 133.437 79.0733 133.105 79.3066 132.676C79.5399 132.237 79.6566 131.729 79.6566 131.15ZM87.3815 135L84.3715 131.612V135H83.0975V124.64H84.3715V130.73L87.3255 127.328H89.1035L85.4915 131.15L89.1175 135H87.3815ZM97.3026 130.87C97.3026 131.113 97.2886 131.369 97.2606 131.64H91.1286C91.1753 132.396 91.4319 132.989 91.8986 133.418C92.3746 133.838 92.9486 134.048 93.6206 134.048C94.1713 134.048 94.6286 133.922 94.9926 133.67C95.3659 133.409 95.6273 133.063 95.7766 132.634H97.1486C96.9433 133.371 96.5326 133.973 95.9166 134.44C95.3006 134.897 94.5353 135.126 93.6206 135.126C92.8926 135.126 92.2393 134.963 91.6606 134.636C91.0913 134.309 90.6433 133.847 90.3166 133.25C89.9899 132.643 89.8266 131.943 89.8266 131.15C89.8266 130.357 89.9853 129.661 90.3026 129.064C90.6199 128.467 91.0633 128.009 91.6326 127.692C92.2113 127.365 92.8739 127.202 93.6206 127.202C94.3486 127.202 94.9926 127.361 95.5526 127.678C96.1126 127.995 96.5419 128.434 96.8406 128.994C97.1486 129.545 97.3026 130.17 97.3026 130.87ZM95.9866 130.604C95.9866 130.119 95.8793 129.703 95.6646 129.358C95.4499 129.003 95.1559 128.737 94.7826 128.56C94.4186 128.373 94.0126 128.28 93.5646 128.28C92.9206 128.28 92.3699 128.485 91.9126 128.896C91.4646 129.307 91.2079 129.876 91.1426 130.604H95.9866ZM106.455 127.188C107.388 127.188 108.144 127.473 108.723 128.042C109.301 128.602 109.591 129.414 109.591 130.478V135H108.331V130.66C108.331 129.895 108.139 129.311 107.757 128.91C107.374 128.499 106.851 128.294 106.189 128.294C105.517 128.294 104.98 128.504 104.579 128.924C104.187 129.344 103.991 129.955 103.991 130.758V135H102.717V127.328H103.991V128.42C104.243 128.028 104.583 127.725 105.013 127.51C105.451 127.295 105.932 127.188 106.455 127.188ZM118.672 130.87C118.672 131.113 118.658 131.369 118.63 131.64H112.498C112.544 132.396 112.801 132.989 113.268 133.418C113.744 133.838 114.318 134.048 114.99 134.048C115.54 134.048 115.998 133.922 116.362 133.67C116.735 133.409 116.996 133.063 117.146 132.634H118.518C118.312 133.371 117.902 133.973 117.286 134.44C116.67 134.897 115.904 135.126 114.99 135.126C114.262 135.126 113.608 134.963 113.03 134.636C112.46 134.309 112.012 133.847 111.686 133.25C111.359 132.643 111.196 131.943 111.196 131.15C111.196 130.357 111.354 129.661 111.672 129.064C111.989 128.467 112.432 128.009 113.002 127.692C113.58 127.365 114.243 127.202 114.99 127.202C115.718 127.202 116.362 127.361 116.922 127.678C117.482 127.995 117.911 128.434 118.21 128.994C118.518 129.545 118.672 130.17 118.672 130.87ZM117.356 130.604C117.356 130.119 117.248 129.703 117.034 129.358C116.819 129.003 116.525 128.737 116.152 128.56C115.788 128.373 115.382 128.28 114.934 128.28C114.29 128.28 113.739 128.485 113.282 128.896C112.834 129.307 112.577 129.876 112.512 130.604H117.356ZM130.573 127.328L128.179 135H126.863L125.015 128.91L123.167 135H121.851L119.443 127.328H120.745L122.509 133.768L124.413 127.328H125.715L127.577 133.782L129.313 127.328H130.573ZM135.094 131.15C135.094 130.357 135.253 129.666 135.57 129.078C135.888 128.481 136.326 128.019 136.886 127.692C137.456 127.365 138.104 127.202 138.832 127.202C139.775 127.202 140.55 127.431 141.156 127.888C141.772 128.345 142.178 128.98 142.374 129.792H141.002C140.872 129.325 140.615 128.957 140.232 128.686C139.859 128.415 139.392 128.28 138.832 128.28C138.104 128.28 137.516 128.532 137.068 129.036C136.62 129.531 136.396 130.235 136.396 131.15C136.396 132.074 136.62 132.788 137.068 133.292C137.516 133.796 138.104 134.048 138.832 134.048C139.392 134.048 139.859 133.917 140.232 133.656C140.606 133.395 140.862 133.021 141.002 132.536H142.374C142.169 133.32 141.758 133.95 141.142 134.426C140.526 134.893 139.756 135.126 138.832 135.126C138.104 135.126 137.456 134.963 136.886 134.636C136.326 134.309 135.888 133.847 135.57 133.25C135.253 132.653 135.094 131.953 135.094 131.15ZM147.42 135.126C146.701 135.126 146.048 134.963 145.46 134.636C144.881 134.309 144.424 133.847 144.088 133.25C143.761 132.643 143.598 131.943 143.598 131.15C143.598 130.366 143.766 129.675 144.102 129.078C144.447 128.471 144.914 128.009 145.502 127.692C146.09 127.365 146.748 127.202 147.476 127.202C148.204 127.202 148.862 127.365 149.45 127.692C150.038 128.009 150.5 128.467 150.836 129.064C151.181 129.661 151.354 130.357 151.354 131.15C151.354 131.943 151.177 132.643 150.822 133.25C150.477 133.847 150.005 134.309 149.408 134.636C148.811 134.963 148.148 135.126 147.42 135.126ZM147.42 134.006C147.877 134.006 148.307 133.899 148.708 133.684C149.109 133.469 149.431 133.147 149.674 132.718C149.926 132.289 150.052 131.766 150.052 131.15C150.052 130.534 149.931 130.011 149.688 129.582C149.445 129.153 149.128 128.835 148.736 128.63C148.344 128.415 147.919 128.308 147.462 128.308C146.995 128.308 146.566 128.415 146.174 128.63C145.791 128.835 145.483 129.153 145.25 129.582C145.017 130.011 144.9 130.534 144.9 131.15C144.9 131.775 145.012 132.303 145.236 132.732C145.469 133.161 145.777 133.483 146.16 133.698C146.543 133.903 146.963 134.006 147.42 134.006ZM159.833 127.328V135H158.559V133.866C158.317 134.258 157.976 134.566 157.537 134.79C157.108 135.005 156.632 135.112 156.109 135.112C155.512 135.112 154.975 134.991 154.499 134.748C154.023 134.496 153.645 134.123 153.365 133.628C153.095 133.133 152.959 132.531 152.959 131.822V127.328H154.219V131.654C154.219 132.41 154.411 132.993 154.793 133.404C155.176 133.805 155.699 134.006 156.361 134.006C157.043 134.006 157.579 133.796 157.971 133.376C158.363 132.956 158.559 132.345 158.559 131.542V127.328H159.833ZM163.258 128.574C163.482 128.135 163.8 127.795 164.21 127.552C164.63 127.309 165.139 127.188 165.736 127.188V128.504H165.4C163.972 128.504 163.258 129.279 163.258 130.828V135H161.984V127.328H163.258V128.574ZM169.923 135.126C169.335 135.126 168.808 135.028 168.341 134.832C167.874 134.627 167.506 134.347 167.235 133.992C166.964 133.628 166.815 133.213 166.787 132.746H168.103C168.14 133.129 168.318 133.441 168.635 133.684C168.962 133.927 169.386 134.048 169.909 134.048C170.394 134.048 170.777 133.941 171.057 133.726C171.337 133.511 171.477 133.241 171.477 132.914C171.477 132.578 171.328 132.331 171.029 132.172C170.73 132.004 170.268 131.841 169.643 131.682C169.074 131.533 168.607 131.383 168.243 131.234C167.888 131.075 167.58 130.847 167.319 130.548C167.067 130.24 166.941 129.839 166.941 129.344C166.941 128.952 167.058 128.593 167.291 128.266C167.524 127.939 167.856 127.683 168.285 127.496C168.714 127.3 169.204 127.202 169.755 127.202C170.604 127.202 171.29 127.417 171.813 127.846C172.336 128.275 172.616 128.863 172.653 129.61H171.379C171.351 129.209 171.188 128.887 170.889 128.644C170.6 128.401 170.208 128.28 169.713 128.28C169.256 128.28 168.892 128.378 168.621 128.574C168.35 128.77 168.215 129.027 168.215 129.344C168.215 129.596 168.294 129.806 168.453 129.974C168.621 130.133 168.826 130.263 169.069 130.366C169.321 130.459 169.666 130.567 170.105 130.688C170.656 130.837 171.104 130.987 171.449 131.136C171.794 131.276 172.088 131.491 172.331 131.78C172.583 132.069 172.714 132.447 172.723 132.914C172.723 133.334 172.606 133.712 172.373 134.048C172.14 134.384 171.808 134.65 171.379 134.846C170.959 135.033 170.474 135.126 169.923 135.126ZM181.521 130.87C181.521 131.113 181.507 131.369 181.479 131.64H175.347C175.394 132.396 175.651 132.989 176.117 133.418C176.593 133.838 177.167 134.048 177.839 134.048C178.39 134.048 178.847 133.922 179.211 133.67C179.585 133.409 179.846 133.063 179.995 132.634H181.367C181.162 133.371 180.751 133.973 180.135 134.44C179.519 134.897 178.754 135.126 177.839 135.126C177.111 135.126 176.458 134.963 175.879 134.636C175.31 134.309 174.862 133.847 174.535 133.25C174.209 132.643 174.045 131.943 174.045 131.15C174.045 130.357 174.204 129.661 174.521 129.064C174.839 128.467 175.282 128.009 175.851 127.692C176.43 127.365 177.093 127.202 177.839 127.202C178.567 127.202 179.211 127.361 179.771 127.678C180.331 127.995 180.761 128.434 181.059 128.994C181.367 129.545 181.521 130.17 181.521 130.87ZM180.205 130.604C180.205 130.119 180.098 129.703 179.883 129.358C179.669 129.003 179.375 128.737 179.001 128.56C178.637 128.373 178.231 128.28 177.783 128.28C177.139 128.28 176.589 128.485 176.131 128.896C175.683 129.307 175.427 129.876 175.361 130.604H180.205ZM185.919 135.126C185.331 135.126 184.804 135.028 184.337 134.832C183.87 134.627 183.502 134.347 183.231 133.992C182.96 133.628 182.811 133.213 182.783 132.746H184.099C184.136 133.129 184.314 133.441 184.631 133.684C184.958 133.927 185.382 134.048 185.905 134.048C186.39 134.048 186.773 133.941 187.053 133.726C187.333 133.511 187.473 133.241 187.473 132.914C187.473 132.578 187.324 132.331 187.025 132.172C186.726 132.004 186.264 131.841 185.639 131.682C185.07 131.533 184.603 131.383 184.239 131.234C183.884 131.075 183.576 130.847 183.315 130.548C183.063 130.24 182.937 129.839 182.937 129.344C182.937 128.952 183.054 128.593 183.287 128.266C183.52 127.939 183.852 127.683 184.281 127.496C184.71 127.3 185.2 127.202 185.751 127.202C186.6 127.202 187.286 127.417 187.809 127.846C188.332 128.275 188.612 128.863 188.649 129.61H187.375C187.347 129.209 187.184 128.887 186.885 128.644C186.596 128.401 186.204 128.28 185.709 128.28C185.252 128.28 184.888 128.378 184.617 128.574C184.346 128.77 184.211 129.027 184.211 129.344C184.211 129.596 184.29 129.806 184.449 129.974C184.617 130.133 184.822 130.263 185.065 130.366C185.317 130.459 185.662 130.567 186.101 130.688C186.652 130.837 187.1 130.987 187.445 131.136C187.79 131.276 188.084 131.491 188.327 131.78C188.579 132.069 188.71 132.447 188.719 132.914C188.719 133.334 188.602 133.712 188.369 134.048C188.136 134.384 187.804 134.65 187.375 134.846C186.955 135.033 186.47 135.126 185.919 135.126Z" fill="black"/>
</g>
<defs>
<filter id="filter0_d_5044_5973" x="0" y="0" width="254" height="193" filterUnits="userSpaceOnUse" color-interpolation-filters="sRGB">
<feFlood flood-opacity="0" result="BackgroundImageFix"/>
<feColorMatrix in="SourceAlpha" type="matrix" values="0 0 0 0 0 0 0 0 0 0 0 0 0 0 0 0 0 0 127 0" result="hardAlpha"/>
<feOffset/>
<feGaussianBlur stdDeviation="22"/>
<feComposite in2="hardAlpha" operator="out"/>
<feColorMatrix type="matrix" values="0 0 0 0 0 0 0 0 0 0 0 0 0 0 0 0 0 0 0.25 0"/>
<feBlend mode="normal" in2="BackgroundImageFix" result="effect1_dropShadow_5044_5973"/>
<feBlend mode="normal" in="SourceGraphic" in2="effect1_dropShadow_5044_5973" result="shape"/>
</filter>
</defs>
</svg>
