<svg width="249" height="149" viewBox="0 0 249 149" fill="none" xmlns="http://www.w3.org/2000/svg">
<g filter="url(#filter0_d_5044_5979)">
<rect x="44" y="44" width="161" height="61" rx="8" fill="white" shape-rendering="crispEdges"/>
<path d="M63.084 58.742V59.778H60.424V68.5H59.15V59.778H56.476V58.742H63.084ZM65.9262 62.074C66.1502 61.6353 66.4676 61.2947 66.8782 61.052C67.2982 60.8093 67.8069 60.688 68.4042 60.688V62.004H68.0682C66.6402 62.004 65.9262 62.7787 65.9262 64.328V68.5H64.6522V60.828H65.9262V62.074ZM69.3989 64.636C69.3989 63.852 69.5575 63.166 69.8749 62.578C70.1922 61.9807 70.6262 61.5187 71.1769 61.192C71.7369 60.8653 72.3575 60.702 73.0389 60.702C73.7109 60.702 74.2942 60.8467 74.7889 61.136C75.2835 61.4253 75.6522 61.7893 75.8949 62.228V60.828H77.1829V68.5H75.8949V67.072C75.6429 67.52 75.2649 67.8933 74.7609 68.192C74.2662 68.4813 73.6875 68.626 73.0249 68.626C72.3435 68.626 71.7275 68.458 71.1769 68.122C70.6262 67.786 70.1922 67.3147 69.8749 66.708C69.5575 66.1013 69.3989 65.4107 69.3989 64.636ZM75.8949 64.65C75.8949 64.0713 75.7782 63.5673 75.5449 63.138C75.3115 62.7087 74.9942 62.382 74.5929 62.158C74.2009 61.9247 73.7669 61.808 73.2909 61.808C72.8149 61.808 72.3809 61.92 71.9889 62.144C71.5969 62.368 71.2842 62.6947 71.0509 63.124C70.8175 63.5533 70.7009 64.0573 70.7009 64.636C70.7009 65.224 70.8175 65.7373 71.0509 66.176C71.2842 66.6053 71.5969 66.9367 71.9889 67.17C72.3809 67.394 72.8149 67.506 73.2909 67.506C73.7669 67.506 74.2009 67.394 74.5929 67.17C74.9942 66.9367 75.3115 66.6053 75.5449 66.176C75.7782 65.7373 75.8949 65.2287 75.8949 64.65ZM78.8598 64.65C78.8598 63.8567 79.0185 63.166 79.3358 62.578C79.6531 61.9807 80.0918 61.5187 80.6518 61.192C81.2211 60.8653 81.8698 60.702 82.5978 60.702C83.5405 60.702 84.3151 60.9307 84.9218 61.388C85.5378 61.8453 85.9438 62.48 86.1398 63.292H84.7678C84.6371 62.8253 84.3805 62.4567 83.9978 62.186C83.6245 61.9153 83.1578 61.78 82.5978 61.78C81.8698 61.78 81.2818 62.032 80.8338 62.536C80.3858 63.0307 80.1618 63.7353 80.1618 64.65C80.1618 65.574 80.3858 66.288 80.8338 66.792C81.2818 67.296 81.8698 67.548 82.5978 67.548C83.1578 67.548 83.6245 67.4173 83.9978 67.156C84.3711 66.8947 84.6278 66.5213 84.7678 66.036H86.1398C85.9345 66.82 85.5238 67.45 84.9078 67.926C84.2918 68.3927 83.5218 68.626 82.5978 68.626C81.8698 68.626 81.2211 68.4627 80.6518 68.136C80.0918 67.8093 79.6531 67.3473 79.3358 66.75C79.0185 66.1527 78.8598 65.4527 78.8598 64.65ZM92.1237 68.5L89.1137 65.112V68.5H87.8397V58.14H89.1137V64.23L92.0677 60.828H93.8457L90.2337 64.65L93.8597 68.5H92.1237Z" fill="#1E3A8A"/>
<path d="M64.092 82.752C64.092 83.2747 63.966 83.7647 63.714 84.222C63.4713 84.6793 63.084 85.048 62.552 85.328C62.0293 85.608 61.3667 85.748 60.564 85.748H58.926V89.5H56.966V79.728H60.564C61.32 79.728 61.964 79.8587 62.496 80.12C63.028 80.3813 63.4247 80.7407 63.686 81.198C63.9567 81.6553 64.092 82.1733 64.092 82.752ZM60.48 84.166C61.0213 84.166 61.4227 84.0447 61.684 83.802C61.9453 83.55 62.076 83.2 62.076 82.752C62.076 81.8 61.544 81.324 60.48 81.324H58.926V84.166H60.48ZM71.4756 87.638H67.5836L66.9396 89.5H64.8816L68.3956 79.714H70.6776L74.1916 89.5H72.1196L71.4756 87.638ZM70.9436 86.07L69.5296 81.982L68.1156 86.07H70.9436ZM83.2751 79.728L79.9711 86.098V89.5H78.0111V86.098L74.6931 79.728H76.9051L79.0051 84.194L81.0911 79.728H83.2751ZM95.0595 79.728V89.5H93.0995V83.144L90.4815 89.5H88.9975L86.3655 83.144V89.5H84.4055V79.728H86.6315L89.7395 86.994L92.8475 79.728H95.0595ZM98.9573 81.31V83.76H102.247V85.314H98.9573V87.904H102.667V89.5H96.9973V79.714H102.667V81.31H98.9573ZM112.806 89.5H110.846L106.408 82.794V89.5H104.448V79.714H106.408L110.846 86.434V79.714H112.806V89.5ZM121.393 79.728V81.31H118.789V89.5H116.829V81.31H114.225V79.728H121.393ZM126.197 89.598C125.516 89.598 124.9 89.4813 124.349 89.248C123.808 89.0147 123.379 88.6787 123.061 88.24C122.744 87.8013 122.581 87.2833 122.571 86.686H124.671C124.699 87.0873 124.839 87.4047 125.091 87.638C125.353 87.8713 125.707 87.988 126.155 87.988C126.613 87.988 126.972 87.8807 127.233 87.666C127.495 87.442 127.625 87.1527 127.625 86.798C127.625 86.5087 127.537 86.2707 127.359 86.084C127.182 85.8973 126.958 85.7527 126.687 85.65C126.426 85.538 126.062 85.4167 125.595 85.286C124.961 85.0993 124.443 84.9173 124.041 84.74C123.649 84.5533 123.309 84.278 123.019 83.914C122.739 83.5407 122.599 83.046 122.599 82.43C122.599 81.8513 122.744 81.3473 123.033 80.918C123.323 80.4887 123.729 80.162 124.251 79.938C124.774 79.7047 125.371 79.588 126.043 79.588C127.051 79.588 127.868 79.8353 128.493 80.33C129.128 80.8153 129.478 81.4967 129.543 82.374H127.387C127.369 82.038 127.224 81.7627 126.953 81.548C126.692 81.324 126.342 81.212 125.903 81.212C125.521 81.212 125.213 81.31 124.979 81.506C124.755 81.702 124.643 81.9867 124.643 82.36C124.643 82.6213 124.727 82.8407 124.895 83.018C125.073 83.186 125.287 83.326 125.539 83.438C125.801 83.5407 126.165 83.662 126.631 83.802C127.266 83.9887 127.784 84.1753 128.185 84.362C128.587 84.5487 128.932 84.8287 129.221 85.202C129.511 85.5753 129.655 86.0653 129.655 86.672C129.655 87.1947 129.52 87.68 129.249 88.128C128.979 88.576 128.582 88.9353 128.059 89.206C127.537 89.4673 126.916 89.598 126.197 89.598Z" fill="#00BAC5"/>
<path d="M189 64.5H165C164.47 64.5 163.961 64.7107 163.586 65.0858C163.211 65.4609 163 65.9696 163 66.5V82.5C163 83.0304 163.211 83.5391 163.586 83.9142C163.961 84.2893 164.47 84.5 165 84.5H189C189.53 84.5 190.039 84.2893 190.414 83.9142C190.789 83.5391 191 83.0304 191 82.5V66.5C191 65.9696 190.789 65.4609 190.414 65.0858C190.039 64.7107 189.53 64.5 189 64.5ZM178 80.5H176C175.735 80.5 175.48 80.3946 175.293 80.2071C175.105 80.0196 175 79.7652 175 79.5C175 79.2348 175.105 78.9804 175.293 78.7929C175.48 78.6054 175.735 78.5 176 78.5H178C178.265 78.5 178.52 78.6054 178.707 78.7929C178.895 78.9804 179 79.2348 179 79.5C179 79.7652 178.895 80.0196 178.707 80.2071C178.52 80.3946 178.265 80.5 178 80.5ZM186 80.5H182C181.735 80.5 181.48 80.3946 181.293 80.2071C181.105 80.0196 181 79.7652 181 79.5C181 79.2348 181.105 78.9804 181.293 78.7929C181.48 78.6054 181.735 78.5 182 78.5H186C186.265 78.5 186.52 78.6054 186.707 78.7929C186.895 78.9804 187 79.2348 187 79.5C187 79.7652 186.895 80.0196 186.707 80.2071C186.52 80.3946 186.265 80.5 186 80.5ZM165 69.5V66.5H189V69.5H165Z" fill="#1E3A8A"/>
</g>
<defs>
<filter id="filter0_d_5044_5979" x="0" y="0" width="249" height="149" filterUnits="userSpaceOnUse" color-interpolation-filters="sRGB">
<feFlood flood-opacity="0" result="BackgroundImageFix"/>
<feColorMatrix in="SourceAlpha" type="matrix" values="0 0 0 0 0 0 0 0 0 0 0 0 0 0 0 0 0 0 127 0" result="hardAlpha"/>
<feOffset/>
<feGaussianBlur stdDeviation="22"/>
<feComposite in2="hardAlpha" operator="out"/>
<feColorMatrix type="matrix" values="0 0 0 0 0 0 0 0 0 0 0 0 0 0 0 0 0 0 0.25 0"/>
<feBlend mode="normal" in2="BackgroundImageFix" result="effect1_dropShadow_5044_5979"/>
<feBlend mode="normal" in="SourceGraphic" in2="effect1_dropShadow_5044_5979" result="shape"/>
</filter>
</defs>
</svg>
