<svg width="366" height="224" viewBox="0 0 366 224" fill="none" xmlns="http://www.w3.org/2000/svg">
<g clip-path="url(#clip0_5044_5989)">
<rect width="366" height="223.727" rx="8" fill="white" fill-opacity="0.56"/>
<rect x="0.271513" y="0.271513" width="365.457" height="223.184" fill="white" fill-opacity="0.81" stroke="#D9D9D9" stroke-width="0.543027"/>
<path d="M21.752 197.604V197.118L23.577 195.12C23.7912 194.886 23.9676 194.682 24.1062 194.51C24.2448 194.335 24.3473 194.171 24.4139 194.018C24.4823 193.864 24.5165 193.702 24.5165 193.532C24.5165 193.338 24.4697 193.17 24.3761 193.028C24.2844 192.885 24.1584 192.776 23.9982 192.698C23.838 192.621 23.658 192.582 23.4582 192.582C23.2459 192.582 23.0605 192.626 22.9021 192.714C22.7455 192.801 22.624 192.922 22.5376 193.079C22.453 193.235 22.4108 193.419 22.4108 193.63H21.7736C21.7736 193.306 21.8483 193.021 21.9977 192.776C22.1471 192.532 22.3505 192.341 22.6078 192.204C22.867 192.067 23.1577 191.999 23.4798 191.999C23.8038 191.999 24.0909 192.067 24.341 192.204C24.5912 192.341 24.7874 192.525 24.9296 192.758C25.0718 192.99 25.1429 193.248 25.1429 193.532C25.1429 193.736 25.106 193.935 25.0322 194.129C24.9602 194.322 24.8342 194.537 24.6542 194.774C24.476 195.01 24.2286 195.298 23.9118 195.638L22.6699 196.966V197.01H25.24V197.604H21.752ZM28.2232 197.679C27.8669 197.679 27.5492 197.618 27.2702 197.496C26.9931 197.373 26.7726 197.203 26.6088 196.985C26.4468 196.766 26.3586 196.511 26.3442 196.221H27.0246C27.039 196.399 27.1001 196.553 27.2081 196.683C27.3161 196.811 27.4574 196.91 27.632 196.98C27.8066 197.05 28 197.085 28.2124 197.085C28.45 197.085 28.6606 197.044 28.8442 196.961C29.0277 196.878 29.1717 196.763 29.2761 196.615C29.3805 196.468 29.4327 196.297 29.4327 196.102C29.4327 195.899 29.3823 195.72 29.2815 195.565C29.1807 195.409 29.0331 195.286 28.8388 195.198C28.6444 195.11 28.4068 195.066 28.126 195.066H27.6833V194.472H28.126C28.3456 194.472 28.5382 194.432 28.7038 194.353C28.8712 194.274 29.0016 194.162 29.0952 194.018C29.1906 193.874 29.2383 193.705 29.2383 193.511C29.2383 193.324 29.1969 193.161 29.1141 193.022C29.0313 192.884 28.9143 192.776 28.7632 192.698C28.6138 192.621 28.4374 192.582 28.234 192.582C28.0432 192.582 27.8633 192.617 27.6941 192.687C27.5267 192.756 27.3899 192.856 27.2837 192.987C27.1775 193.117 27.1199 193.273 27.1109 193.457H26.463C26.4738 193.167 26.5611 192.913 26.7249 192.695C26.8887 192.476 27.1028 192.305 27.3674 192.183C27.6338 192.06 27.9263 191.999 28.2448 191.999C28.5868 191.999 28.8802 192.068 29.1249 192.207C29.3697 192.344 29.5578 192.524 29.6892 192.749C29.8205 192.974 29.8862 193.217 29.8862 193.478C29.8862 193.79 29.8044 194.055 29.6406 194.275C29.4786 194.494 29.2581 194.646 28.9791 194.731V194.774C29.3283 194.832 29.601 194.98 29.7972 195.22C29.9933 195.457 30.0914 195.752 30.0914 196.102C30.0914 196.403 30.0095 196.673 29.8457 196.912C29.6838 197.15 29.4624 197.337 29.1816 197.474C28.9008 197.611 28.5814 197.679 28.2232 197.679ZM35.5475 192.075H36.2171V196.027C36.2171 196.38 36.1523 196.679 36.0227 196.926C35.8931 197.172 35.7104 197.36 35.4746 197.487C35.2389 197.615 34.9608 197.679 34.6404 197.679C34.3381 197.679 34.069 197.624 33.8332 197.514C33.5974 197.403 33.4121 197.244 33.2771 197.039C33.1421 196.834 33.0746 196.59 33.0746 196.308H33.7333C33.7333 196.464 33.772 196.601 33.8494 196.718C33.9286 196.833 34.0366 196.923 34.1734 196.988C34.3102 197.053 34.4658 197.085 34.6404 197.085C34.833 197.085 34.9968 197.045 35.1318 196.964C35.2668 196.883 35.3693 196.764 35.4395 196.607C35.5115 196.449 35.5475 196.255 35.5475 196.027V192.075ZM41.1872 192.075H41.8567V195.735C41.8567 196.113 41.7677 196.451 41.5895 196.748C41.4131 197.043 41.1638 197.276 40.8417 197.447C40.5195 197.616 40.1415 197.701 39.7078 197.701C39.274 197.701 38.8961 197.616 38.5739 197.447C38.2517 197.276 38.0016 197.043 37.8234 196.748C37.647 196.451 37.5588 196.113 37.5588 195.735V192.075H38.2283V195.681C38.2283 195.951 38.2877 196.192 38.4065 196.402C38.5253 196.611 38.6945 196.776 38.9141 196.896C39.1354 197.015 39.4 197.074 39.7078 197.074C40.0155 197.074 40.2801 197.015 40.5015 196.896C40.7229 196.776 40.892 196.611 41.009 196.402C41.1278 196.192 41.1872 195.951 41.1872 195.681V192.075ZM43.1938 197.604V192.075H43.8633V197.01H46.4334V197.604H43.1938Z" fill="black"/>
<path d="M80.7862 197.604V197.118L82.6112 195.12C82.8254 194.886 83.0018 194.682 83.1403 194.51C83.2789 194.335 83.3815 194.171 83.4481 194.018C83.5165 193.864 83.5507 193.702 83.5507 193.532C83.5507 193.338 83.5039 193.17 83.4103 193.028C83.3185 192.885 83.1925 192.776 83.0324 192.698C82.8722 192.621 82.6922 192.582 82.4924 192.582C82.28 192.582 82.0947 192.626 81.9363 192.714C81.7797 192.801 81.6582 192.922 81.5718 193.079C81.4872 193.235 81.4449 193.419 81.4449 193.63H80.8078C80.8078 193.306 80.8825 193.021 81.0319 192.776C81.1813 192.532 81.3846 192.341 81.642 192.204C81.9012 192.067 82.1919 191.999 82.514 191.999C82.838 191.999 83.1251 192.067 83.3752 192.204C83.6254 192.341 83.8216 192.525 83.9638 192.758C84.1059 192.99 84.177 193.248 84.177 193.532C84.177 193.736 84.1401 193.935 84.0663 194.129C83.9944 194.322 83.8684 194.537 83.6884 194.774C83.5102 195.01 83.2627 195.298 82.946 195.638L81.7041 196.966V197.01H84.2742V197.604H80.7862ZM85.1408 196.47V195.919L87.5706 192.075H87.9701V192.928H87.7002L85.8644 195.833V195.876H89.1364V196.47H85.1408ZM87.7433 197.604V196.302V196.046V192.075H88.3805V197.604H87.7433Z" fill="black"/>
<path d="M123.821 197.604V197.118L125.646 195.12C125.861 194.886 126.037 194.682 126.176 194.51C126.314 194.335 126.417 194.171 126.483 194.018C126.552 193.864 126.586 193.702 126.586 193.532C126.586 193.338 126.539 193.17 126.445 193.028C126.354 192.885 126.228 192.776 126.068 192.698C125.907 192.621 125.727 192.582 125.528 192.582C125.315 192.582 125.13 192.626 124.971 192.714C124.815 192.801 124.693 192.922 124.607 193.079C124.522 193.235 124.48 193.419 124.48 193.63H123.843C123.843 193.306 123.918 193.021 124.067 192.776C124.216 192.532 124.42 192.341 124.677 192.204C124.936 192.067 125.227 191.999 125.549 191.999C125.873 191.999 126.16 192.067 126.41 192.204C126.661 192.341 126.857 192.525 126.999 192.758C127.141 192.99 127.212 193.248 127.212 193.532C127.212 193.736 127.175 193.935 127.102 194.129C127.03 194.322 126.904 194.537 126.724 194.774C126.545 195.01 126.298 195.298 125.981 195.638L124.739 196.966V197.01H127.309V197.604H123.821ZM130.152 197.679C129.835 197.679 129.55 197.616 129.296 197.49C129.043 197.364 128.839 197.191 128.686 196.972C128.533 196.752 128.45 196.502 128.435 196.221H129.083C129.108 196.471 129.222 196.678 129.423 196.842C129.627 197.004 129.87 197.085 130.152 197.085C130.379 197.085 130.581 197.032 130.757 196.926C130.935 196.82 131.075 196.674 131.175 196.489C131.278 196.301 131.329 196.09 131.329 195.854C131.329 195.613 131.276 195.398 131.17 195.209C131.066 195.018 130.922 194.868 130.738 194.758C130.554 194.648 130.345 194.592 130.109 194.591C129.94 194.589 129.766 194.615 129.588 194.669C129.41 194.721 129.263 194.789 129.148 194.871L128.522 194.796L128.856 192.075H131.729V192.668H129.418L129.223 194.299H129.256C129.369 194.209 129.511 194.134 129.682 194.075C129.853 194.016 130.032 193.986 130.217 193.986C130.555 193.986 130.857 194.067 131.121 194.229C131.388 194.389 131.597 194.609 131.748 194.888C131.901 195.167 131.977 195.485 131.977 195.843C131.977 196.196 131.898 196.511 131.74 196.788C131.583 197.064 131.367 197.281 131.092 197.442C130.816 197.6 130.503 197.679 130.152 197.679Z" fill="black"/>
<path d="M166.856 197.604V197.118L168.681 195.12C168.895 194.886 169.071 194.682 169.21 194.51C169.348 194.335 169.451 194.171 169.517 194.018C169.586 193.864 169.62 193.702 169.62 193.532C169.62 193.338 169.573 193.17 169.48 193.028C169.388 192.885 169.262 192.776 169.102 192.698C168.942 192.621 168.762 192.582 168.562 192.582C168.349 192.582 168.164 192.626 168.006 192.714C167.849 192.801 167.728 192.922 167.641 193.079C167.557 193.235 167.514 193.419 167.514 193.63H166.877C166.877 193.306 166.952 193.021 167.101 192.776C167.251 192.532 167.454 192.341 167.711 192.204C167.971 192.067 168.261 191.999 168.583 191.999C168.907 191.999 169.194 192.067 169.445 192.204C169.695 192.341 169.891 192.525 170.033 192.758C170.175 192.99 170.246 193.248 170.246 193.532C170.246 193.736 170.209 193.935 170.136 194.129C170.064 194.322 169.938 194.537 169.758 194.774C169.58 195.01 169.332 195.298 169.015 195.638L167.773 196.966V197.01H170.344V197.604H166.856ZM173.294 197.679C173.068 197.676 172.841 197.632 172.614 197.55C172.387 197.467 172.18 197.327 171.993 197.131C171.806 196.933 171.656 196.666 171.542 196.329C171.429 195.991 171.372 195.566 171.372 195.055C171.372 194.565 171.418 194.132 171.51 193.754C171.602 193.374 171.735 193.055 171.909 192.795C172.084 192.534 172.295 192.336 172.541 192.201C172.789 192.066 173.069 191.999 173.381 191.999C173.69 191.999 173.966 192.061 174.207 192.185C174.45 192.308 174.648 192.479 174.801 192.698C174.954 192.918 175.053 193.171 175.098 193.457H174.439C174.378 193.208 174.259 193.002 174.083 192.839C173.906 192.675 173.672 192.593 173.381 192.593C172.952 192.593 172.615 192.779 172.368 193.152C172.124 193.524 172 194.047 171.998 194.72H172.042C172.142 194.567 172.262 194.437 172.401 194.329C172.541 194.219 172.696 194.134 172.865 194.075C173.034 194.016 173.213 193.986 173.402 193.986C173.719 193.986 174.009 194.065 174.272 194.223C174.534 194.38 174.745 194.597 174.903 194.874C175.062 195.149 175.141 195.465 175.141 195.822C175.141 196.164 175.064 196.477 174.911 196.761C174.758 197.044 174.543 197.269 174.266 197.436C173.991 197.602 173.667 197.683 173.294 197.679ZM173.294 197.085C173.521 197.085 173.724 197.028 173.904 196.915C174.086 196.802 174.229 196.65 174.334 196.459C174.44 196.268 174.493 196.056 174.493 195.822C174.493 195.593 174.442 195.385 174.339 195.198C174.238 195.009 174.099 194.859 173.921 194.747C173.744 194.636 173.543 194.58 173.316 194.58C173.145 194.58 172.986 194.614 172.838 194.682C172.691 194.749 172.561 194.841 172.449 194.958C172.34 195.075 172.253 195.209 172.19 195.36C172.127 195.509 172.096 195.667 172.096 195.833C172.096 196.052 172.147 196.257 172.25 196.448C172.354 196.639 172.496 196.793 172.676 196.91C172.858 197.027 173.064 197.085 173.294 197.085Z" fill="black"/>
<path d="M209.891 197.604V197.118L211.716 195.12C211.93 194.886 212.106 194.682 212.245 194.51C212.383 194.335 212.486 194.171 212.553 194.018C212.621 193.864 212.655 193.702 212.655 193.532C212.655 193.338 212.608 193.17 212.515 193.028C212.423 192.885 212.297 192.776 212.137 192.698C211.977 192.621 211.797 192.582 211.597 192.582C211.385 192.582 211.199 192.626 211.041 192.714C210.884 192.801 210.763 192.922 210.676 193.079C210.592 193.235 210.549 193.419 210.549 193.63H209.912C209.912 193.306 209.987 193.021 210.136 192.776C210.286 192.532 210.489 192.341 210.747 192.204C211.006 192.067 211.296 191.999 211.619 191.999C211.942 191.999 212.23 192.067 212.48 192.204C212.73 192.341 212.926 192.525 213.068 192.758C213.21 192.99 213.282 193.248 213.282 193.532C213.282 193.736 213.245 193.935 213.171 194.129C213.099 194.322 212.973 194.537 212.793 194.774C212.615 195.01 212.367 195.298 212.05 195.638L210.809 196.966V197.01H213.379V197.604H209.891ZM214.666 197.604L217.139 192.712V192.668H214.289V192.075H217.831V192.701L215.368 197.604H214.666Z" fill="black"/>
<path d="M251.925 197.604V197.118L253.75 195.12C253.964 194.886 254.14 194.682 254.279 194.51C254.418 194.335 254.52 194.171 254.587 194.018C254.655 193.864 254.689 193.702 254.689 193.532C254.689 193.338 254.643 193.17 254.549 193.028C254.457 192.885 254.331 192.776 254.171 192.698C254.011 192.621 253.831 192.582 253.631 192.582C253.419 192.582 253.233 192.626 253.075 192.714C252.918 192.801 252.797 192.922 252.71 193.079C252.626 193.235 252.584 193.419 252.584 193.63H251.946C251.946 193.306 252.021 193.021 252.171 192.776C252.32 192.532 252.523 192.341 252.781 192.204C253.04 192.067 253.331 191.999 253.653 191.999C253.977 191.999 254.264 192.067 254.514 192.204C254.764 192.341 254.96 192.525 255.102 192.758C255.245 192.99 255.316 193.248 255.316 193.532C255.316 193.736 255.279 193.935 255.205 194.129C255.133 194.322 255.007 194.537 254.827 194.774C254.649 195.01 254.401 195.298 254.085 195.638L252.843 196.966V197.01H255.413V197.604H251.925ZM258.299 197.679C257.928 197.679 257.601 197.613 257.316 197.482C257.034 197.349 256.813 197.166 256.655 196.934C256.496 196.7 256.418 196.434 256.42 196.135C256.418 195.901 256.464 195.685 256.558 195.487C256.651 195.287 256.779 195.121 256.941 194.987C257.105 194.853 257.287 194.767 257.489 194.731V194.699C257.224 194.63 257.014 194.482 256.857 194.253C256.701 194.023 256.623 193.761 256.625 193.468C256.623 193.187 256.694 192.936 256.838 192.714C256.982 192.493 257.18 192.318 257.432 192.191C257.686 192.063 257.975 191.999 258.299 191.999C258.619 191.999 258.905 192.063 259.157 192.191C259.409 192.318 259.607 192.493 259.751 192.714C259.897 192.936 259.971 193.187 259.973 193.468C259.971 193.761 259.891 194.023 259.732 194.253C259.576 194.482 259.368 194.63 259.109 194.699V194.731C259.309 194.767 259.489 194.853 259.649 194.987C259.809 195.121 259.937 195.287 260.032 195.487C260.127 195.685 260.176 195.901 260.178 196.135C260.176 196.434 260.095 196.7 259.935 196.934C259.777 197.166 259.556 197.349 259.273 197.482C258.993 197.613 258.668 197.679 258.299 197.679ZM258.299 197.085C258.549 197.085 258.765 197.045 258.947 196.964C259.129 196.883 259.269 196.768 259.368 196.621C259.467 196.473 259.517 196.3 259.519 196.102C259.517 195.894 259.463 195.709 259.357 195.549C259.251 195.389 259.106 195.263 258.923 195.171C258.741 195.079 258.533 195.033 258.299 195.033C258.063 195.033 257.853 195.079 257.667 195.171C257.484 195.263 257.339 195.389 257.233 195.549C257.128 195.709 257.077 195.894 257.079 196.102C257.077 196.3 257.125 196.473 257.222 196.621C257.321 196.768 257.462 196.883 257.646 196.964C257.829 197.045 258.047 197.085 258.299 197.085ZM258.299 194.461C258.497 194.461 258.672 194.421 258.825 194.342C258.98 194.263 259.102 194.152 259.19 194.01C259.278 193.868 259.323 193.702 259.325 193.511C259.323 193.324 259.279 193.161 259.192 193.022C259.106 192.882 258.986 192.774 258.833 192.698C258.68 192.621 258.502 192.582 258.299 192.582C258.092 192.582 257.911 192.621 257.756 192.698C257.601 192.774 257.482 192.882 257.397 193.022C257.313 193.161 257.271 193.324 257.273 193.511C257.271 193.702 257.313 193.868 257.4 194.01C257.488 194.152 257.61 194.263 257.764 194.342C257.919 194.421 258.097 194.461 258.299 194.461Z" fill="black"/>
<path d="M294.96 197.604V197.118L296.785 195.12C296.999 194.886 297.176 194.682 297.314 194.51C297.453 194.335 297.555 194.171 297.622 194.018C297.69 193.864 297.725 193.702 297.725 193.532C297.725 193.338 297.678 193.17 297.584 193.028C297.492 192.885 297.366 192.776 297.206 192.698C297.046 192.621 296.866 192.582 296.666 192.582C296.454 192.582 296.268 192.626 296.11 192.714C295.954 192.801 295.832 192.922 295.746 193.079C295.661 193.235 295.619 193.419 295.619 193.63H294.982C294.982 193.306 295.056 193.021 295.206 192.776C295.355 192.532 295.558 192.341 295.816 192.204C296.075 192.067 296.366 191.999 296.688 191.999C297.012 191.999 297.299 192.067 297.549 192.204C297.799 192.341 297.995 192.525 298.138 192.758C298.28 192.99 298.351 193.248 298.351 193.532C298.351 193.736 298.314 193.935 298.24 194.129C298.168 194.322 298.042 194.537 297.862 194.774C297.684 195.01 297.437 195.298 297.12 195.638L295.878 196.966V197.01H298.448V197.604H294.96ZM301.323 191.999C301.55 192.001 301.777 192.044 302.004 192.129C302.23 192.213 302.437 192.353 302.625 192.55C302.812 192.744 302.962 193.01 303.075 193.346C303.189 193.683 303.245 194.105 303.245 194.612C303.245 195.104 303.199 195.54 303.105 195.922C303.013 196.301 302.88 196.622 302.705 196.883C302.533 197.144 302.322 197.342 302.074 197.477C301.827 197.612 301.548 197.679 301.237 197.679C300.927 197.679 300.651 197.618 300.408 197.496C300.167 197.371 299.969 197.199 299.814 196.98C299.661 196.759 299.563 196.502 299.52 196.21H300.179C300.238 196.464 300.356 196.674 300.532 196.839C300.71 197.003 300.945 197.085 301.237 197.085C301.663 197.085 302 196.899 302.247 196.526C302.495 196.154 302.619 195.627 302.619 194.947H302.576C302.475 195.098 302.355 195.229 302.217 195.338C302.078 195.448 301.924 195.533 301.755 195.592C301.586 195.652 301.406 195.681 301.215 195.681C300.898 195.681 300.608 195.603 300.343 195.446C300.08 195.288 299.87 195.071 299.712 194.796C299.555 194.519 299.477 194.202 299.477 193.846C299.477 193.507 299.552 193.198 299.703 192.917C299.856 192.634 300.071 192.409 300.346 192.242C300.623 192.075 300.949 191.994 301.323 191.999ZM301.323 192.593C301.096 192.593 300.892 192.65 300.71 192.763C300.53 192.875 300.387 193.026 300.281 193.216C300.177 193.405 300.125 193.615 300.125 193.846C300.125 194.076 300.175 194.286 300.276 194.475C300.378 194.662 300.518 194.811 300.694 194.923C300.872 195.032 301.075 195.087 301.302 195.087C301.473 195.087 301.632 195.054 301.779 194.987C301.927 194.919 302.056 194.826 302.166 194.709C302.277 194.591 302.364 194.457 302.427 194.307C302.49 194.156 302.522 193.999 302.522 193.835C302.522 193.619 302.47 193.416 302.365 193.227C302.263 193.038 302.121 192.885 301.939 192.768C301.759 192.651 301.554 192.593 301.323 192.593ZM308.659 192.075H309.329V196.027C309.329 196.38 309.264 196.679 309.134 196.926C309.005 197.172 308.822 197.36 308.586 197.487C308.35 197.615 308.072 197.679 307.752 197.679C307.45 197.679 307.18 197.624 306.945 197.514C306.709 197.403 306.524 197.244 306.389 197.039C306.254 196.834 306.186 196.59 306.186 196.308H306.845C306.845 196.464 306.884 196.601 306.961 196.718C307.04 196.833 307.148 196.923 307.285 196.988C307.422 197.053 307.577 197.085 307.752 197.085C307.944 197.085 308.108 197.045 308.243 196.964C308.378 196.883 308.481 196.764 308.551 196.607C308.623 196.449 308.659 196.255 308.659 196.027V192.075ZM314.299 192.075H314.968V195.735C314.968 196.113 314.879 196.451 314.701 196.748C314.525 197.043 314.275 197.276 313.953 197.447C313.631 197.616 313.253 197.701 312.819 197.701C312.386 197.701 312.008 197.616 311.685 197.447C311.363 197.276 311.113 197.043 310.935 196.748C310.758 196.451 310.67 196.113 310.67 195.735V192.075H311.34V195.681C311.34 195.951 311.399 196.192 311.518 196.402C311.637 196.611 311.806 196.776 312.026 196.896C312.247 197.015 312.512 197.074 312.819 197.074C313.127 197.074 313.392 197.015 313.613 196.896C313.834 196.776 314.004 196.611 314.121 196.402C314.239 196.192 314.299 195.951 314.299 195.681V192.075ZM316.305 197.604V192.075H316.975V197.01H319.545V197.604H316.305Z" fill="black"/>
<path d="M334.634 190.619C334.317 190.619 334.032 190.556 333.778 190.43C333.525 190.304 333.321 190.131 333.168 189.911C333.015 189.692 332.932 189.441 332.917 189.161H333.565C333.59 189.411 333.704 189.618 333.905 189.782C334.109 189.944 334.352 190.025 334.634 190.025C334.861 190.025 335.062 189.972 335.239 189.865C335.417 189.759 335.557 189.613 335.657 189.428C335.76 189.241 335.811 189.029 335.811 188.794C335.811 188.552 335.758 188.337 335.652 188.148C335.548 187.958 335.404 187.807 335.22 187.697C335.036 187.588 334.827 187.532 334.591 187.53C334.422 187.528 334.248 187.554 334.07 187.608C333.892 187.661 333.745 187.728 333.63 187.811L333.004 187.735L333.338 185.014H336.211V185.608H333.9L333.705 187.239H333.738C333.851 187.149 333.993 187.074 334.164 187.014C334.335 186.955 334.514 186.925 334.699 186.925C335.037 186.925 335.339 187.006 335.603 187.168C335.87 187.329 336.078 187.548 336.23 187.827C336.383 188.106 336.459 188.425 336.459 188.783C336.459 189.136 336.38 189.45 336.222 189.728C336.065 190.003 335.849 190.221 335.574 190.381C335.298 190.539 334.985 190.619 334.634 190.619ZM339.335 190.619C338.928 190.619 338.582 190.508 338.296 190.286C338.009 190.063 337.791 189.74 337.64 189.317C337.488 188.893 337.413 188.38 337.413 187.778C337.413 187.181 337.488 186.671 337.64 186.248C337.793 185.823 338.012 185.499 338.298 185.276C338.586 185.051 338.932 184.938 339.335 184.938C339.738 184.938 340.083 185.051 340.369 185.276C340.657 185.499 340.877 185.823 341.028 186.248C341.181 186.671 341.257 187.181 341.257 187.778C341.257 188.38 341.182 188.893 341.03 189.317C340.879 189.74 340.661 190.063 340.374 190.286C340.088 190.508 339.742 190.619 339.335 190.619ZM339.335 190.025C339.738 190.025 340.051 189.83 340.274 189.441C340.498 189.053 340.609 188.498 340.609 187.778C340.609 187.3 340.558 186.892 340.455 186.556C340.355 186.219 340.209 185.962 340.018 185.786C339.829 185.61 339.601 185.522 339.335 185.522C338.935 185.522 338.623 185.719 338.398 186.113C338.173 186.505 338.061 187.06 338.061 187.778C338.061 188.257 338.111 188.664 338.212 188.999C338.313 189.334 338.458 189.588 338.647 189.763C338.837 189.937 339.067 190.025 339.335 190.025ZM344.086 190.619C343.68 190.619 343.333 190.508 343.047 190.286C342.761 190.063 342.542 189.74 342.391 189.317C342.24 188.893 342.164 188.38 342.164 187.778C342.164 187.181 342.24 186.671 342.391 186.248C342.544 185.823 342.764 185.499 343.05 185.276C343.338 185.051 343.683 184.938 344.086 184.938C344.49 184.938 344.834 185.051 345.12 185.276C345.408 185.499 345.628 185.823 345.779 186.248C345.932 186.671 346.009 187.181 346.009 187.778C346.009 188.38 345.933 188.893 345.782 189.317C345.631 189.74 345.412 190.063 345.126 190.286C344.84 190.508 344.493 190.619 344.086 190.619ZM344.086 190.025C344.49 190.025 344.803 189.83 345.026 189.441C345.249 189.053 345.361 188.498 345.361 187.778C345.361 187.3 345.309 186.892 345.207 186.556C345.106 186.219 344.96 185.962 344.77 185.786C344.581 185.61 344.353 185.522 344.086 185.522C343.687 185.522 343.375 185.719 343.15 186.113C342.925 186.505 342.812 187.06 342.812 187.778C342.812 188.257 342.863 188.664 342.963 188.999C343.064 189.334 343.209 189.588 343.398 189.763C343.589 189.937 343.818 190.025 344.086 190.025Z" fill="black"/>
<path d="M334.85 156.233V161.762H334.181V156.935H334.148L332.798 157.831V157.151L334.181 156.233H334.85ZM336.537 161.762V156.233H337.207V158.976H337.272L339.755 156.233H340.63L338.308 158.727L340.63 161.762H339.82L337.898 159.192L337.207 159.969V161.762H336.537Z" fill="black"/>
<path d="M334.85 126.909V132.438H334.181V127.61H334.148L332.798 128.507V127.826L334.181 126.909H334.85ZM336.589 132.481C336.456 132.481 336.341 132.433 336.246 132.338C336.15 132.242 336.103 132.128 336.103 131.995C336.103 131.862 336.15 131.747 336.246 131.652C336.341 131.556 336.456 131.509 336.589 131.509C336.722 131.509 336.836 131.556 336.932 131.652C337.027 131.747 337.075 131.862 337.075 131.995C337.075 132.083 337.052 132.164 337.007 132.238C336.964 132.312 336.905 132.371 336.832 132.416C336.76 132.459 336.679 132.481 336.589 132.481ZM339.824 132.513C339.507 132.513 339.222 132.45 338.968 132.324C338.714 132.198 338.511 132.025 338.358 131.806C338.205 131.586 338.121 131.336 338.107 131.055H338.755C338.78 131.305 338.893 131.512 339.095 131.676C339.298 131.838 339.541 131.919 339.824 131.919C340.05 131.919 340.252 131.866 340.428 131.76C340.607 131.654 340.746 131.508 340.847 131.323C340.949 131.135 341.001 130.924 341.001 130.688C341.001 130.447 340.948 130.232 340.841 130.043C340.737 129.852 340.593 129.702 340.409 129.592C340.226 129.482 340.016 129.426 339.78 129.425C339.611 129.423 339.438 129.449 339.259 129.503C339.081 129.555 338.935 129.623 338.819 129.705L338.193 129.63L338.528 126.909H341.4V127.502H339.089L338.895 129.133H338.927C339.041 129.043 339.183 128.968 339.354 128.909C339.525 128.85 339.703 128.82 339.888 128.82C340.227 128.82 340.528 128.901 340.793 129.063C341.059 129.223 341.268 129.443 341.419 129.722C341.572 130.001 341.649 130.319 341.649 130.677C341.649 131.03 341.569 131.345 341.411 131.622C341.254 131.898 341.039 132.115 340.763 132.276C340.488 132.434 340.175 132.513 339.824 132.513ZM342.818 132.438V126.909H343.488V129.651H343.553L346.036 126.909H346.911L344.589 129.403L346.911 132.438H346.101L344.179 129.867L343.488 130.645V132.438H342.818Z" fill="black"/>
<path d="M332.906 103.115V102.629L334.731 100.632C334.946 100.398 335.122 100.194 335.26 100.021C335.399 99.8468 335.502 99.683 335.568 99.53C335.637 99.3752 335.671 99.2133 335.671 99.0441C335.671 98.8497 335.624 98.6814 335.53 98.5392C335.439 98.397 335.313 98.2873 335.152 98.2099C334.992 98.1325 334.812 98.0938 334.613 98.0938C334.4 98.0938 334.215 98.1379 334.056 98.2261C333.9 98.3125 333.778 98.4339 333.692 98.5905C333.607 98.7471 333.565 98.9307 333.565 99.1413H332.928C332.928 98.8173 333.003 98.5329 333.152 98.2882C333.301 98.0434 333.505 97.8526 333.762 97.7158C334.021 97.579 334.312 97.5106 334.634 97.5106C334.958 97.5106 335.245 97.579 335.495 97.7158C335.746 97.8526 335.942 98.0371 336.084 98.2693C336.226 98.5014 336.297 98.7597 336.297 99.0441C336.297 99.2475 336.26 99.4463 336.186 99.6407C336.114 99.8333 335.988 100.048 335.809 100.286C335.63 100.522 335.383 100.81 335.066 101.15L333.824 102.478V102.521H336.394V103.115H332.906ZM337.607 103.115V97.5862H338.276V100.329H338.341L340.825 97.5862H341.699L339.378 100.081L341.699 103.115H340.889L338.967 100.545L338.276 101.323V103.115H337.607Z" fill="black"/>
<path d="M332.906 73.791V73.3051L334.731 71.3073C334.946 71.0733 335.122 70.8699 335.26 70.6972C335.399 70.5226 335.502 70.3588 335.568 70.2058C335.637 70.051 335.671 69.889 335.671 69.7199C335.671 69.5255 335.624 69.3572 335.53 69.215C335.439 69.0728 335.313 68.963 335.152 68.8856C334.992 68.8083 334.812 68.7696 334.613 68.7696C334.4 68.7696 334.215 68.8137 334.056 68.9018C333.9 68.9882 333.778 69.1097 333.692 69.2663C333.607 69.4229 333.565 69.6065 333.565 69.817H332.928C332.928 69.4931 333.003 69.2087 333.152 68.9639C333.301 68.7192 333.505 68.5284 333.762 68.3916C334.021 68.2548 334.312 68.1864 334.634 68.1864C334.958 68.1864 335.245 68.2548 335.495 68.3916C335.746 68.5284 335.942 68.7129 336.084 68.945C336.226 69.1772 336.297 69.4355 336.297 69.7199C336.297 69.9232 336.26 70.1221 336.186 70.3165C336.114 70.5091 335.988 70.7241 335.809 70.9617C335.63 71.1975 335.383 71.4855 335.066 71.8256L333.824 73.1539V73.1971H336.394V73.791H332.906ZM337.984 73.8342C337.851 73.8342 337.737 73.7865 337.642 73.6911C337.546 73.5957 337.499 73.4814 337.499 73.3483C337.499 73.2151 337.546 73.1008 337.642 73.0054C337.737 72.91 337.851 72.8623 337.984 72.8623C338.118 72.8623 338.232 72.91 338.327 73.0054C338.423 73.1008 338.47 73.2151 338.47 73.3483C338.47 73.4365 338.448 73.5174 338.403 73.5912C338.36 73.665 338.301 73.7244 338.227 73.7694C338.155 73.8126 338.074 73.8342 337.984 73.8342ZM341.219 73.8666C340.903 73.8666 340.617 73.8036 340.364 73.6776C340.11 73.5516 339.906 73.3789 339.753 73.1593C339.6 72.9397 339.517 72.6895 339.502 72.4088H340.15C340.176 72.6589 340.289 72.8659 340.49 73.0297C340.694 73.1917 340.937 73.2727 341.219 73.2727C341.446 73.2727 341.648 73.2196 341.824 73.1134C342.002 73.0072 342.142 72.8614 342.243 72.676C342.345 72.4889 342.396 72.2774 342.396 72.0416C342.396 71.8004 342.343 71.5854 342.237 71.3964C342.133 71.2056 341.989 71.0553 341.805 70.9455C341.622 70.8357 341.412 70.7799 341.176 70.7781C341.007 70.7763 340.833 70.8024 340.655 70.8564C340.477 70.9086 340.33 70.9761 340.215 71.0589L339.589 70.9833L339.924 68.262H342.796V68.856H340.485L340.291 70.4866H340.323C340.436 70.3966 340.579 70.3219 340.75 70.2625C340.921 70.2031 341.099 70.1734 341.284 70.1734C341.623 70.1734 341.924 70.2544 342.189 70.4164C342.455 70.5766 342.664 70.7961 342.815 71.0751C342.968 71.3541 343.044 71.6726 343.044 72.0308C343.044 72.3836 342.965 72.6985 342.807 72.9757C342.65 73.2511 342.434 73.4689 342.159 73.629C341.884 73.7874 341.57 73.8666 341.219 73.8666ZM344.214 73.791V68.262H344.884V71.0049H344.948L347.432 68.262H348.307L345.985 70.7565L348.307 73.791H347.497L345.575 71.2209L344.884 71.9984V73.791H344.214Z" fill="black"/>
<path d="M334.775 44.5443C334.418 44.5443 334.1 44.4831 333.822 44.3608C333.544 44.2384 333.324 44.0683 333.16 43.8505C332.998 43.6309 332.91 43.3763 332.896 43.0865H333.576C333.59 43.2647 333.651 43.4186 333.759 43.5482C333.867 43.6759 334.009 43.7749 334.183 43.8451C334.358 43.9153 334.551 43.9504 334.764 43.9504C335.001 43.9504 335.212 43.909 335.395 43.8262C335.579 43.7434 335.723 43.6282 335.827 43.4807C335.932 43.3331 335.984 43.1621 335.984 42.9677C335.984 42.7643 335.934 42.5853 335.833 42.4305C335.732 42.2739 335.584 42.1515 335.39 42.0633C335.196 41.9751 334.958 41.931 334.677 41.931H334.235V41.3371H334.677C334.897 41.3371 335.089 41.2975 335.255 41.2183C335.422 41.1391 335.553 41.0275 335.647 40.8835C335.742 40.7396 335.79 40.5704 335.79 40.376C335.79 40.1888 335.748 40.0259 335.665 39.8873C335.583 39.7488 335.466 39.6408 335.314 39.5634C335.165 39.486 334.989 39.4473 334.785 39.4473C334.595 39.4473 334.415 39.4824 334.245 39.5526C334.078 39.621 333.941 39.7209 333.835 39.8523C333.729 39.9818 333.671 40.1384 333.662 40.322H333.014C333.025 40.0322 333.112 39.7785 333.276 39.5607C333.44 39.3411 333.654 39.1701 333.919 39.0477C334.185 38.9254 334.478 38.8642 334.796 38.8642C335.138 38.8642 335.431 38.9335 335.676 39.072C335.921 39.2088 336.109 39.3897 336.24 39.6147C336.372 39.8397 336.438 40.0826 336.438 40.3436C336.438 40.655 336.356 40.9204 336.192 41.14C336.03 41.3596 335.809 41.5117 335.53 41.5963V41.6395C335.88 41.6971 336.152 41.8455 336.348 42.0849C336.545 42.3225 336.643 42.6168 336.643 42.9677C336.643 43.2683 336.561 43.5383 336.397 43.7776C336.235 44.0152 336.014 44.2024 335.733 44.3392C335.452 44.4759 335.133 44.5443 334.775 44.5443ZM337.844 44.4688V38.9398H338.514V41.6827H338.578L341.062 38.9398H341.937L339.615 41.4343L341.937 44.4688H341.127L339.205 41.8986L338.514 42.6761V44.4688H337.844Z" fill="black"/>
<path d="M13.5762 42.8984H322.558" stroke="#ECEBEB" stroke-width="0.543027"/>
<path d="M13.5762 101.004H322.558" stroke="#ECEBEB" stroke-width="0.543027"/>
<path d="M13.5762 159.65H322.558" stroke="#ECEBEB" stroke-width="0.543027"/>
<path d="M13.5762 71.6797H322.558" stroke="#ECEBEB" stroke-width="0.543027"/>
<path d="M13.5762 130.326H322.558" stroke="#ECEBEB" stroke-width="0.543027"/>
<path d="M13.5762 188.43H322.558" stroke="#ECEBEB" stroke-width="0.543027"/>
<rect x="13.5762" y="7.60156" width="87.2908" height="17.3769" rx="2.17211" fill="#F1F5F9"/>
<path d="M18.9452 19.791H18.143L20.4633 13.4722H21.2531L23.5733 19.791H22.7711L20.8829 14.4718H20.8335L18.9452 19.791ZM19.2414 17.3227H22.4749V18.0015H19.2414V17.3227ZM25.187 13.4722V19.791H24.4588V13.4722H25.187ZM27.2488 13.4722V19.791H26.5206V13.4722H27.2488ZM31.1248 19.791V13.4722H34.9383V14.1509H31.89V16.286H34.7408V16.9648H31.89V19.1122H34.9877V19.791H31.1248ZM36.9469 16.9401V19.791H36.2187V15.0519H36.9222V15.7924H36.9839C37.095 15.5517 37.2637 15.3584 37.4899 15.2123C37.7162 15.0642 38.0083 14.9902 38.3662 14.9902C38.687 14.9902 38.9678 15.056 39.2085 15.1876C39.4491 15.3172 39.6363 15.5147 39.77 15.78C39.9037 16.0433 39.9706 16.3765 39.9706 16.7797V19.791H39.2424V16.8291C39.2424 16.4567 39.1457 16.1667 38.9524 15.959C38.759 15.7492 38.4937 15.6443 38.1564 15.6443C37.9239 15.6443 37.7162 15.6947 37.5331 15.7954C37.3521 15.8962 37.2091 16.0433 37.1042 16.2367C36.9993 16.43 36.9469 16.6645 36.9469 16.9401ZM41.3011 19.791V15.0519H42.0046V15.7677H42.054C42.1404 15.5332 42.2967 15.3429 42.5229 15.1969C42.7492 15.0508 43.0043 14.9778 43.2881 14.9778C43.3416 14.9778 43.4084 14.9789 43.4887 14.9809C43.5689 14.983 43.6296 14.9861 43.6707 14.9902V15.7307C43.646 15.7245 43.5895 15.7152 43.501 15.7029C43.4146 15.6885 43.3231 15.6813 43.2264 15.6813C42.996 15.6813 42.7903 15.7296 42.6093 15.8263C42.4304 15.9209 42.2885 16.0526 42.1835 16.2212C42.0807 16.3878 42.0293 16.5781 42.0293 16.792V19.791H41.3011ZM46.3149 19.8897C45.887 19.8897 45.5116 19.7879 45.1887 19.5843C44.8678 19.3807 44.6169 19.0958 44.4359 18.7296C44.2569 18.3635 44.1674 17.9357 44.1674 17.4461C44.1674 16.9525 44.2569 16.5215 44.4359 16.1534C44.6169 15.7852 44.8678 15.4993 45.1887 15.2956C45.5116 15.092 45.887 14.9902 46.3149 14.9902C46.7427 14.9902 47.1171 15.092 47.438 15.2956C47.7609 15.4993 48.0118 15.7852 48.1908 16.1534C48.3718 16.5215 48.4623 16.9525 48.4623 17.4461C48.4623 17.9357 48.3718 18.3635 48.1908 18.7296C48.0118 19.0958 47.7609 19.3807 47.438 19.5843C47.1171 19.7879 46.7427 19.8897 46.3149 19.8897ZM46.3149 19.2356C46.6399 19.2356 46.9073 19.1523 47.1171 18.9857C47.3269 18.8191 47.4822 18.6001 47.583 18.3285C47.6838 18.057 47.7341 17.7629 47.7341 17.4461C47.7341 17.1294 47.6838 16.8342 47.583 16.5606C47.4822 16.2871 47.3269 16.0659 47.1171 15.8973C46.9073 15.7286 46.6399 15.6443 46.3149 15.6443C45.9899 15.6443 45.7225 15.7286 45.5127 15.8973C45.3029 16.0659 45.1476 16.2871 45.0468 16.5606C44.946 16.8342 44.8956 17.1294 44.8956 17.4461C44.8956 17.7629 44.946 18.057 45.0468 18.3285C45.1476 18.6001 45.3029 18.8191 45.5127 18.9857C45.7225 19.1523 45.9899 19.2356 46.3149 19.2356ZM50.302 13.4722V19.791H49.5738V13.4722H50.302ZM52.3638 13.4722V19.791H51.6356V13.4722H52.3638ZM55.6844 19.8897C55.2278 19.8897 54.8339 19.789 54.5027 19.5874C54.1736 19.3837 53.9196 19.0999 53.7406 18.7358C53.5637 18.3697 53.4753 17.9439 53.4753 17.4585C53.4753 16.973 53.5637 16.5452 53.7406 16.175C53.9196 15.8026 54.1684 15.5126 54.4873 15.3049C54.8082 15.0951 55.1825 14.9902 55.6103 14.9902C55.8572 14.9902 56.1009 15.0313 56.3416 15.1136C56.5822 15.1959 56.8013 15.3296 56.9988 15.5147C57.1962 15.6977 57.3536 15.9405 57.4708 16.2428C57.5881 16.5452 57.6467 16.9175 57.6467 17.3597V17.6683H53.9936V17.0389H56.9062C56.9062 16.7715 56.8527 16.5329 56.7458 16.323C56.6409 16.1132 56.4907 15.9477 56.2953 15.8263C56.102 15.7049 55.8736 15.6443 55.6103 15.6443C55.3203 15.6443 55.0694 15.7163 54.8575 15.8602C54.6477 16.0022 54.4862 16.1873 54.3731 16.4156C54.26 16.6439 54.2034 16.8887 54.2034 17.1499V17.5695C54.2034 17.9274 54.2651 18.2308 54.3885 18.4797C54.514 18.7266 54.6878 18.9148 54.91 19.0444C55.1321 19.1719 55.3903 19.2356 55.6844 19.2356C55.8757 19.2356 56.0485 19.2089 56.2027 19.1554C56.3591 19.0999 56.4938 19.0176 56.6069 18.9086C56.7201 18.7975 56.8075 18.6597 56.8692 18.4952L57.5727 18.6926C57.4986 18.9312 57.3742 19.141 57.1993 19.322C57.0245 19.501 56.8085 19.6409 56.5514 19.7416C56.2943 19.8404 56.0053 19.8897 55.6844 19.8897ZM60.5439 19.8897C60.1489 19.8897 59.8003 19.79 59.4979 19.5905C59.1956 19.3889 58.959 19.105 58.7883 18.7389C58.6176 18.3707 58.5322 17.9357 58.5322 17.4338C58.5322 16.936 58.6176 16.5041 58.7883 16.1379C58.959 15.7718 59.1966 15.489 59.501 15.2894C59.8054 15.0899 60.1572 14.9902 60.5562 14.9902C60.8648 14.9902 61.1085 15.0416 61.2874 15.1444C61.4685 15.2452 61.6063 15.3604 61.7009 15.49C61.7976 15.6175 61.8726 15.7224 61.9261 15.8047H61.9878V13.4722H62.716V19.791H62.0125V19.0629H61.9261C61.8726 19.1493 61.7965 19.2583 61.6978 19.3899C61.5991 19.5195 61.4582 19.6357 61.2751 19.7386C61.092 19.8394 60.8483 19.8897 60.5439 19.8897ZM60.6426 19.2356C60.9347 19.2356 61.1815 19.1595 61.3831 19.0073C61.5847 18.8531 61.7379 18.6402 61.8428 18.3687C61.9477 18.0951 62.0002 17.7793 62.0002 17.4214C62.0002 17.0677 61.9487 16.7581 61.8459 16.4927C61.7431 16.2253 61.5908 16.0176 61.3893 15.8695C61.1877 15.7193 60.9388 15.6443 60.6426 15.6443C60.3341 15.6443 60.077 15.7235 59.8713 15.8818C59.6676 16.0382 59.5144 16.2511 59.4115 16.5205C59.3107 16.7879 59.2604 17.0882 59.2604 17.4214C59.2604 17.7588 59.3118 18.0653 59.4146 18.3409C59.5195 18.6145 59.6738 18.8325 59.8774 18.995C60.0831 19.1554 60.3382 19.2356 60.6426 19.2356ZM69.5809 17.8534V15.0519H70.3091V19.791H69.5809V18.9888H69.5316C69.4205 19.2295 69.2477 19.4341 69.0132 19.6028C68.7787 19.7694 68.4826 19.8527 68.1246 19.8527C67.8285 19.8527 67.5652 19.7879 67.3348 19.6583C67.1044 19.5267 66.9234 19.3292 66.7918 19.066C66.6601 18.8006 66.5943 18.4664 66.5943 18.0632V15.0519H67.3224V18.0138C67.3224 18.3594 67.4191 18.635 67.6125 18.8407C67.8079 19.0464 68.0568 19.1493 68.3591 19.1493C68.5401 19.1493 68.7242 19.103 68.9114 19.0104C69.1007 18.9179 69.259 18.7759 69.3866 18.5846C69.5162 18.3933 69.5809 18.1496 69.5809 17.8534ZM74.9996 16.1132L74.3455 16.2984C74.3044 16.1893 74.2437 16.0834 74.1635 15.9806C74.0853 15.8757 73.9784 15.7893 73.8426 15.7214C73.7069 15.6535 73.5331 15.6196 73.3212 15.6196C73.0312 15.6196 72.7895 15.6864 72.5961 15.8201C72.4048 15.9518 72.3092 16.1194 72.3092 16.323C72.3092 16.5041 72.375 16.647 72.5067 16.7519C72.6383 16.8568 72.844 16.9442 73.1237 17.0142L73.8272 17.187C74.2509 17.2898 74.5667 17.4472 74.7744 17.659C74.9822 17.8688 75.086 18.1393 75.086 18.4705C75.086 18.742 75.0079 18.9847 74.8515 19.1986C74.6973 19.4125 74.4813 19.5812 74.2036 19.7046C73.9259 19.828 73.603 19.8897 73.2348 19.8897C72.7514 19.8897 72.3514 19.7848 72.0346 19.575C71.7178 19.3652 71.5173 19.0588 71.4329 18.6556L72.1241 18.4828C72.1899 18.7379 72.3143 18.9292 72.4974 19.0567C72.6825 19.1842 72.9242 19.248 73.2225 19.248C73.5619 19.248 73.8313 19.176 74.0308 19.032C74.2324 18.886 74.3332 18.7111 74.3332 18.5075C74.3332 18.3429 74.2756 18.2051 74.1604 18.0941C74.0452 17.9809 73.8683 17.8966 73.6297 17.8411L72.8399 17.6559C72.4059 17.5531 72.087 17.3937 71.8834 17.1777C71.6818 16.9597 71.581 16.6871 71.581 16.3601C71.581 16.0927 71.6561 15.8561 71.8063 15.6504C71.9585 15.4447 72.1652 15.2833 72.4264 15.166C72.6897 15.0488 72.988 14.9902 73.3212 14.9902C73.7902 14.9902 74.1584 15.093 74.4258 15.2987C74.6952 15.5044 74.8865 15.7759 74.9996 16.1132ZM78.1691 19.8897C77.7125 19.8897 77.3186 19.789 76.9874 19.5874C76.6583 19.3837 76.4043 19.0999 76.2253 18.7358C76.0484 18.3697 75.96 17.9439 75.96 17.4585C75.96 16.973 76.0484 16.5452 76.2253 16.175C76.4043 15.8026 76.6532 15.5126 76.972 15.3049C77.2929 15.0951 77.6672 14.9902 78.0951 14.9902C78.3419 14.9902 78.5856 15.0313 78.8263 15.1136C79.0669 15.1959 79.286 15.3296 79.4835 15.5147C79.6809 15.6977 79.8383 15.9405 79.9555 16.2428C80.0728 16.5452 80.1314 16.9175 80.1314 17.3597V17.6683H76.4783V17.0389H79.3909C79.3909 16.7715 79.3374 16.5329 79.2305 16.323C79.1256 16.1132 78.9754 15.9477 78.78 15.8263C78.5867 15.7049 78.3583 15.6443 78.0951 15.6443C77.805 15.6443 77.5541 15.7163 77.3422 15.8602C77.1324 16.0022 76.9709 16.1873 76.8578 16.4156C76.7447 16.6439 76.6881 16.8887 76.6881 17.1499V17.5695C76.6881 17.9274 76.7498 18.2308 76.8732 18.4797C76.9987 18.7266 77.1725 18.9148 77.3947 19.0444C77.6168 19.1719 77.875 19.2356 78.1691 19.2356C78.3604 19.2356 78.5332 19.2089 78.6874 19.1554C78.8438 19.0999 78.9785 19.0176 79.0916 18.9086C79.2048 18.7975 79.2922 18.6597 79.3539 18.4952L80.0574 18.6926C79.9833 18.9312 79.8589 19.141 79.684 19.322C79.5092 19.501 79.2932 19.6409 79.0361 19.7416C78.779 19.8404 78.49 19.8897 78.1691 19.8897ZM81.2391 19.791V15.0519H81.9425V15.7677H81.9919C82.0783 15.5332 82.2346 15.3429 82.4609 15.1969C82.6871 15.0508 82.9422 14.9778 83.226 14.9778C83.2795 14.9778 83.3464 14.9789 83.4266 14.9809C83.5068 14.983 83.5675 14.9861 83.6086 14.9902V15.7307C83.5839 15.7245 83.5274 15.7152 83.4389 15.7029C83.3525 15.6885 83.261 15.6813 83.1643 15.6813C82.934 15.6813 82.7283 15.7296 82.5473 15.8263C82.3683 15.9209 82.2264 16.0526 82.1215 16.2212C82.0186 16.3878 81.9672 16.5781 81.9672 16.792V19.791H81.2391ZM87.8286 16.1132L87.1745 16.2984C87.1334 16.1893 87.0727 16.0834 86.9925 15.9806C86.9143 15.8757 86.8074 15.7893 86.6716 15.7214C86.5359 15.6535 86.3621 15.6196 86.1502 15.6196C85.8602 15.6196 85.6185 15.6864 85.4251 15.8201C85.2338 15.9518 85.1382 16.1194 85.1382 16.323C85.1382 16.5041 85.204 16.647 85.3357 16.7519C85.4673 16.8568 85.673 16.9442 85.9527 17.0142L86.6562 17.187C87.0799 17.2898 87.3957 17.4472 87.6034 17.659C87.8112 17.8688 87.915 18.1393 87.915 18.4705C87.915 18.742 87.8369 18.9847 87.6805 19.1986C87.5263 19.4125 87.3103 19.5812 87.0326 19.7046C86.7549 19.828 86.432 19.8897 86.0638 19.8897C85.5804 19.8897 85.1804 19.7848 84.8636 19.575C84.5468 19.3652 84.3463 19.0588 84.2619 18.6556L84.9531 18.4828C85.0189 18.7379 85.1433 18.9292 85.3264 19.0567C85.5115 19.1842 85.7532 19.248 86.0515 19.248C86.3909 19.248 86.6603 19.176 86.8598 19.032C87.0614 18.886 87.1622 18.7111 87.1622 18.5075C87.1622 18.3429 87.1046 18.2051 86.9894 18.0941C86.8742 17.9809 86.6973 17.8966 86.4587 17.8411L85.6689 17.6559C85.2349 17.5531 84.916 17.3937 84.7124 17.1777C84.5108 16.9597 84.41 16.6871 84.41 16.3601C84.41 16.0927 84.4851 15.8561 84.6353 15.6504C84.7875 15.4447 84.9942 15.2833 85.2554 15.166C85.5187 15.0488 85.817 14.9902 86.1502 14.9902C86.6192 14.9902 86.9874 15.093 87.2548 15.2987C87.5242 15.5044 87.7155 15.7759 87.8286 16.1132Z" fill="black"/>
<path d="M92.4038 14.9979C92.3076 14.8535 92.4111 14.6602 92.5846 14.6602H96.1171C96.2905 14.6602 96.394 14.8535 96.2978 14.9979L94.5315 17.6472C94.4456 17.7762 94.2561 17.7762 94.1701 17.6472L92.4038 14.9979Z" fill="black"/>
<path d="M30.1387 175.399L68.4221 142.275H94.4873L122.453 159.652L151.234 155.036L157.207 146.347L188.431 167.254L204.722 159.652H252.508L259.567 167.254L275.587 130.871L297.036 147.433" stroke="#7600F4" stroke-width="0.760237"/>
<path d="M38.5566 179.742L46.159 129.783L74.9394 154.219L119.468 115.393L139.56 107.248L178.386 111.32L211.239 107.248L265.813 93.1289L286.991 107.248L297.037 101.546" stroke="#0179FB" stroke-width="0.760237"/>
<path d="M297.037 123.81L258.753 117.836L229.43 123.81L205.265 96.9297L194.948 134.942L146.618 129.783L91.7726 117.836H52.4032L26.3379 123.81" stroke="#D3005A" stroke-width="0.760237"/>
<rect x="215.582" y="14.2754" width="3.25816" height="3.25816" fill="#0179FB"/>
<path d="M221.38 13.4692V12.8753H225.527V13.4692H223.788V18.4043H223.118V13.4692H221.38ZM227.557 18.4907C227.182 18.4907 226.854 18.4016 226.571 18.2234C226.291 18.0452 226.071 17.796 225.913 17.4756C225.756 17.1552 225.678 16.7809 225.678 16.3525C225.678 15.9206 225.756 15.5435 225.913 15.2213C226.071 14.8992 226.291 14.649 226.571 14.4708C226.854 14.2926 227.182 14.2036 227.557 14.2036C227.931 14.2036 228.259 14.2926 228.539 14.4708C228.822 14.649 229.042 14.8992 229.198 15.2213C229.357 15.5435 229.436 15.9206 229.436 16.3525C229.436 16.7809 229.357 17.1552 229.198 17.4756C229.042 17.796 228.822 18.0452 228.539 18.2234C228.259 18.4016 227.931 18.4907 227.557 18.4907ZM227.557 17.9183C227.841 17.9183 228.075 17.8455 228.259 17.6997C228.442 17.5539 228.578 17.3622 228.666 17.1246C228.755 16.8871 228.799 16.6297 228.799 16.3525C228.799 16.0753 228.755 15.8171 228.666 15.5777C228.578 15.3383 228.442 15.1449 228.259 14.9973C228.075 14.8497 227.841 14.7759 227.557 14.7759C227.272 14.7759 227.038 14.8497 226.855 14.9973C226.671 15.1449 226.535 15.3383 226.447 15.5777C226.359 15.8171 226.315 16.0753 226.315 16.3525C226.315 16.6297 226.359 16.8871 226.447 17.1246C226.535 17.3622 226.671 17.5539 226.855 17.6997C227.038 17.8455 227.272 17.9183 227.557 17.9183ZM232.212 14.2575V14.7975H230.063V14.2575H232.212ZM230.689 13.2641H231.326V17.2164C231.326 17.3964 231.352 17.5314 231.405 17.6214C231.459 17.7096 231.527 17.769 231.61 17.7996C231.694 17.8284 231.783 17.8428 231.877 17.8428C231.947 17.8428 232.005 17.8392 232.05 17.832C232.095 17.823 232.131 17.8158 232.158 17.8104L232.287 18.3827C232.244 18.3989 232.184 18.4151 232.106 18.4313C232.029 18.4493 231.931 18.4583 231.812 18.4583C231.632 18.4583 231.456 18.4196 231.283 18.3422C231.112 18.2648 230.97 18.1469 230.857 17.9885C230.745 17.8302 230.689 17.6304 230.689 17.3892V13.2641ZM234.39 18.5015C234.128 18.5015 233.889 18.452 233.675 18.353C233.461 18.2522 233.291 18.1073 233.165 17.9183C233.039 17.7276 232.976 17.4972 232.976 17.2272C232.976 16.9897 233.023 16.7971 233.116 16.6495C233.21 16.5001 233.335 16.3831 233.491 16.2985C233.648 16.2139 233.821 16.1509 234.01 16.1095C234.201 16.0664 234.392 16.0322 234.585 16.007C234.837 15.9746 235.041 15.9503 235.198 15.9341C235.356 15.9161 235.471 15.8864 235.543 15.845C235.617 15.8036 235.654 15.7316 235.654 15.629V15.6074C235.654 15.341 235.581 15.1341 235.435 14.9865C235.291 14.8389 235.073 14.7651 234.779 14.7651C234.475 14.7651 234.237 14.8317 234.064 14.9649C233.891 15.0981 233.769 15.2402 233.699 15.3914L233.095 15.1754C233.203 14.9235 233.347 14.7273 233.527 14.5869C233.708 14.4447 233.906 14.3457 234.12 14.2899C234.336 14.2324 234.549 14.2036 234.758 14.2036C234.891 14.2036 235.044 14.2198 235.217 14.2521C235.391 14.2827 235.559 14.3466 235.721 14.4438C235.885 14.541 236.021 14.6877 236.129 14.8839C236.237 15.0801 236.291 15.3428 236.291 15.6722V18.4043H235.654V17.8428H235.621C235.578 17.9327 235.506 18.029 235.406 18.1316C235.305 18.2342 235.171 18.3215 235.003 18.3935C234.836 18.4655 234.632 18.5015 234.39 18.5015ZM234.488 17.9291C234.74 17.9291 234.952 17.8797 235.125 17.7807C235.299 17.6817 235.431 17.5539 235.519 17.3973C235.609 17.2407 235.654 17.076 235.654 16.9033V16.3201C235.627 16.3525 235.567 16.3822 235.476 16.4092C235.386 16.4344 235.281 16.4569 235.163 16.4767C235.046 16.4947 234.931 16.5109 234.82 16.5253C234.71 16.5379 234.621 16.5487 234.552 16.5577C234.387 16.5793 234.232 16.6144 234.088 16.663C233.946 16.7098 233.831 16.7809 233.742 16.8763C233.656 16.9699 233.613 17.0976 233.613 17.2596C233.613 17.481 233.695 17.6484 233.859 17.7618C234.024 17.8734 234.234 17.9291 234.488 17.9291ZM238.091 12.8753V18.4043H237.454V12.8753H238.091ZM244.009 16.7089V14.2575H244.647V18.4043H244.009V17.7024H243.966C243.869 17.913 243.718 18.092 243.513 18.2396C243.308 18.3854 243.048 18.4583 242.735 18.4583C242.476 18.4583 242.246 18.4016 242.044 18.2882C241.843 18.173 241.684 18.0002 241.569 17.7699C241.454 17.5377 241.396 17.2452 241.396 16.8925V14.2575H242.033V16.8493C242.033 17.1516 242.118 17.3928 242.287 17.5728C242.458 17.7528 242.676 17.8428 242.94 17.8428C243.099 17.8428 243.26 17.8023 243.424 17.7213C243.589 17.6403 243.728 17.5161 243.839 17.3487C243.953 17.1813 244.009 16.9681 244.009 16.7089ZM248.751 15.1862L248.178 15.3482C248.142 15.2528 248.089 15.1601 248.019 15.0702C247.951 14.9784 247.857 14.9028 247.738 14.8434C247.62 14.784 247.468 14.7543 247.282 14.7543C247.028 14.7543 246.817 14.8128 246.648 14.9298C246.48 15.045 246.397 15.1916 246.397 15.3698C246.397 15.5282 246.454 15.6533 246.569 15.7451C246.685 15.8369 246.865 15.9134 247.109 15.9746L247.725 16.1257C248.096 16.2157 248.372 16.3534 248.554 16.5388C248.736 16.7224 248.826 16.9591 248.826 17.2488C248.826 17.4864 248.758 17.6988 248.621 17.886C248.486 18.0731 248.297 18.2207 248.054 18.3287C247.811 18.4367 247.529 18.4907 247.207 18.4907C246.784 18.4907 246.434 18.3989 246.156 18.2153C245.879 18.0317 245.704 17.7636 245.63 17.4108L246.235 17.2596C246.292 17.4828 246.401 17.6502 246.561 17.7618C246.723 17.8734 246.935 17.9291 247.196 17.9291C247.493 17.9291 247.729 17.8662 247.903 17.7402C248.08 17.6124 248.168 17.4594 248.168 17.2812C248.168 17.1372 248.117 17.0166 248.017 16.9195C247.916 16.8205 247.761 16.7467 247.552 16.6981L246.861 16.5361C246.481 16.4461 246.202 16.3066 246.024 16.1176C245.848 15.9269 245.76 15.6884 245.76 15.4022C245.76 15.1682 245.825 14.9613 245.957 14.7813C246.09 14.6013 246.271 14.46 246.499 14.3574C246.73 14.2548 246.991 14.2036 247.282 14.2036C247.693 14.2036 248.015 14.2935 248.249 14.4735C248.484 14.6535 248.652 14.8911 248.751 15.1862ZM251.524 18.4907C251.125 18.4907 250.78 18.4025 250.49 18.2261C250.202 18.0479 249.98 17.7996 249.823 17.481C249.669 17.1606 249.591 16.7881 249.591 16.3633C249.591 15.9386 249.669 15.5642 249.823 15.2402C249.98 14.9145 250.198 14.6607 250.477 14.4789C250.757 14.2953 251.085 14.2036 251.459 14.2036C251.675 14.2036 251.889 14.2395 252.099 14.3115C252.31 14.3835 252.501 14.5005 252.674 14.6625C252.847 14.8227 252.985 15.0351 253.087 15.2996C253.19 15.5642 253.241 15.89 253.241 16.2769V16.5469H250.045V15.9962H252.593C252.593 15.7622 252.546 15.5534 252.453 15.3698C252.361 15.1862 252.23 15.0414 252.059 14.9352C251.889 14.829 251.69 14.7759 251.459 14.7759C251.206 14.7759 250.986 14.8389 250.801 14.9649C250.617 15.0891 250.476 15.251 250.377 15.4508C250.278 15.6506 250.228 15.8648 250.228 16.0933V16.4605C250.228 16.7737 250.282 17.0391 250.39 17.2569C250.5 17.4729 250.652 17.6376 250.846 17.751C251.041 17.8626 251.267 17.9183 251.524 17.9183C251.691 17.9183 251.843 17.895 251.978 17.8482C252.114 17.7996 252.232 17.7276 252.331 17.6322C252.43 17.535 252.507 17.4144 252.561 17.2704L253.176 17.4432C253.112 17.652 253.003 17.8356 252.85 17.9939C252.697 18.1505 252.508 18.2729 252.283 18.3611C252.058 18.4475 251.805 18.4907 251.524 18.4907ZM254.21 18.4043V14.2575H254.826V14.8839H254.869C254.945 14.6787 255.081 14.5122 255.279 14.3844C255.477 14.2566 255.701 14.1928 255.949 14.1928C255.996 14.1928 256.054 14.1937 256.124 14.1955C256.195 14.1973 256.248 14.2 256.284 14.2036V14.8515C256.262 14.8461 256.213 14.838 256.135 14.8272C256.06 14.8146 255.98 14.8083 255.895 14.8083C255.693 14.8083 255.513 14.8506 255.355 14.9352C255.198 15.018 255.074 15.1332 254.982 15.2807C254.892 15.4265 254.847 15.593 254.847 15.7802V18.4043H254.21ZM259.976 15.1862L259.404 15.3482C259.368 15.2528 259.315 15.1601 259.245 15.0702C259.176 14.9784 259.083 14.9028 258.964 14.8434C258.845 14.784 258.693 14.7543 258.508 14.7543C258.254 14.7543 258.042 14.8128 257.873 14.9298C257.706 15.045 257.622 15.1916 257.622 15.3698C257.622 15.5282 257.68 15.6533 257.795 15.7451C257.91 15.8369 258.09 15.9134 258.335 15.9746L258.95 16.1257C259.321 16.2157 259.597 16.3534 259.779 16.5388C259.961 16.7224 260.052 16.9591 260.052 17.2488C260.052 17.4864 259.983 17.6988 259.847 17.886C259.712 18.0731 259.523 18.2207 259.28 18.3287C259.037 18.4367 258.754 18.4907 258.432 18.4907C258.009 18.4907 257.659 18.3989 257.382 18.2153C257.105 18.0317 256.929 17.7636 256.855 17.4108L257.46 17.2596C257.518 17.4828 257.627 17.6502 257.787 17.7618C257.949 17.8734 258.16 17.9291 258.421 17.9291C258.718 17.9291 258.954 17.8662 259.129 17.7402C259.305 17.6124 259.393 17.4594 259.393 17.2812C259.393 17.1372 259.343 17.0166 259.242 16.9195C259.141 16.8205 258.986 16.7467 258.778 16.6981L258.086 16.5361C257.707 16.4461 257.428 16.3066 257.25 16.1176C257.073 15.9269 256.985 15.6884 256.985 15.4022C256.985 15.1682 257.051 14.9613 257.182 14.7813C257.315 14.6013 257.496 14.46 257.725 14.3574C257.955 14.2548 258.216 14.2036 258.508 14.2036C258.918 14.2036 259.24 14.2935 259.474 14.4735C259.71 14.6535 259.877 14.8911 259.976 15.1862Z" fill="black"/>
<rect x="269.157" y="14.2754" width="3.25816" height="3.25816" fill="#7600F4"/>
<path d="M277.374 12.8753H278.044V16.8277C278.044 17.1804 277.979 17.4801 277.849 17.7267C277.72 17.9732 277.537 18.1604 277.301 18.2882C277.065 18.416 276.787 18.4799 276.467 18.4799C276.165 18.4799 275.895 18.425 275.66 18.3152C275.424 18.2036 275.239 18.0452 275.104 17.8401C274.969 17.6349 274.901 17.391 274.901 17.1084H275.56C275.56 17.265 275.598 17.4018 275.676 17.5188C275.755 17.634 275.863 17.724 276 17.7888C276.137 17.8536 276.292 17.886 276.467 17.886C276.659 17.886 276.823 17.8455 276.958 17.7645C277.093 17.6835 277.196 17.5647 277.266 17.4081C277.338 17.2497 277.374 17.0562 277.374 16.8277V12.8753ZM279.385 18.4043V12.8753H282.722V13.4692H280.055V15.3374H282.549V15.9314H280.055V17.8104H282.765V18.4043H279.385ZM283.929 18.4043V12.8753H287.266V13.4692H284.598V15.3374H287.093V15.9314H284.598V17.8104H287.309V18.4043H283.929Z" fill="black"/>
<rect x="296.733" y="14.2754" width="3.25816" height="3.25816" fill="#D3005A"/>
<path d="M307.218 12.8753V18.4043H306.57L303.557 14.0632H303.503V18.4043H302.834V12.8753H303.482L306.505 17.2272H306.559V12.8753H307.218ZM308.558 18.4043V12.8753H311.894V13.4692H309.227V15.3374H311.722V15.9314H309.227V17.8104H311.938V18.4043H308.558ZM313.101 18.4043V12.8753H316.438V13.4692H313.771V15.3374H316.265V15.9314H313.771V17.8104H316.481V18.4043H313.101ZM317.342 13.4692V12.8753H321.489V13.4692H319.751V18.4043H319.081V13.4692H317.342Z" fill="black"/>
</g>
<defs>
<clipPath id="clip0_5044_5989">
<rect width="366" height="223.727" rx="8" fill="white"/>
</clipPath>
</defs>
</svg>
