<svg width="18" height="19" viewBox="0 0 18 19" fill="none" xmlns="http://www.w3.org/2000/svg">
<g id="FunnelSimple">
<g id="Vector">
<path d="M13.5 8.9375H4.5C4.35082 8.9375 4.20774 8.99676 4.10225 9.10225C3.99676 9.20774 3.9375 9.35082 3.9375 9.5C3.9375 9.64918 3.99676 9.79226 4.10225 9.89775C4.20774 10.0032 4.35082 10.0625 4.5 10.0625H13.5C13.6492 10.0625 13.7923 10.0032 13.8977 9.89775C14.0032 9.79226 14.0625 9.64918 14.0625 9.5C14.0625 9.35082 14.0032 9.20774 13.8977 9.10225C13.7923 8.99676 13.6492 8.9375 13.5 8.9375Z" fill="#1C1C1C" fill-opacity="0.4"/>
<path d="M16.3125 5.5625H1.6875C1.53832 5.5625 1.39524 5.62176 1.28975 5.72725C1.18426 5.83274 1.125 5.97582 1.125 6.125C1.125 6.27418 1.18426 6.41726 1.28975 6.52275C1.39524 6.62824 1.53832 6.6875 1.6875 6.6875H16.3125C16.4617 6.6875 16.6048 6.62824 16.7102 6.52275C16.8157 6.41726 16.875 6.27418 16.875 6.125C16.875 5.97582 16.8157 5.83274 16.7102 5.72725C16.6048 5.62176 16.4617 5.5625 16.3125 5.5625Z" fill="#1C1C1C" fill-opacity="0.4"/>
<path d="M10.6875 12.3125H7.3125C7.16332 12.3125 7.02024 12.3718 6.91475 12.4773C6.80926 12.5827 6.75 12.7258 6.75 12.875C6.75 13.0242 6.80926 13.1673 6.91475 13.2727C7.02024 13.3782 7.16332 13.4375 7.3125 13.4375H10.6875C10.8367 13.4375 10.9798 13.3782 11.0852 13.2727C11.1907 13.1673 11.25 13.0242 11.25 12.875C11.25 12.7258 11.1907 12.5827 11.0852 12.4773C10.9798 12.3718 10.8367 12.3125 10.6875 12.3125Z" fill="#1C1C1C" fill-opacity="0.4"/>
</g>
</g>
</svg>
